# xmcd
#
# Track frame offsets:
#	150
#	14487
#	29137
#	46054
#	61727
#	74892
#	89364
#	103559
#	116561
#	131970
#	146385
#
# Disc length: 2235
#
# Revision: 1
# Processed by: cddbd v1.5.1PL0 Copyright (c) Steve Scherf et al.
# Submitted via: CD-DA_X-Tractor v0.23
# Normalized: r0:TRMNUM
#
DISCID=a108b90b
DTITLE=d-cru - the outer world
DYEAR=1998
DGENRE=R&B
TTITLE0=Show Me
TTITLE1=Thinkin'
TTITLE2=I Wanna Go
TTITLE3=I Will Be Waiting
TTITLE4=Never Never
TTITLE5=Keepin' It Real
TTITLE6=Shaboom
TTITLE7=We Got It Goin' On
TTITLE8=Heaven Help
TTITLE9=What's Up
TTITLE10=Rush The Temple
EXTD=
EXTT0=
EXTT1=
EXTT2=
EXTT3=
EXTT4=
EXTT5=
EXTT6=
EXTT7=
EXTT8=
EXTT9=
EXTT10=
PLAYORDER=
